# xmcd
#
# Track frame offsets:
#	150
#	20935
#	38185
#	61209
#	79494
#	96460
#	114183
#	133567
#	147328
#	162766
#	182134
#	200340
#	214718
#	227995
#	244018
#	254278
#
# Disc length: 3633
#
# Revision: 2
# Processed by: cddbd v1.5.1PL0 Copyright (c) Steve Scherf et al.
# Submitted via: EasyCDDAExtractor 5.0.6
# Normalized: r1:DSETVAR1
#
DISCID=e60e2f10
DTITLE=Various Artist - Hovigs Hangar 2002
DYEAR=2002
DGENRE=Blues
TTITLE0=Jimmy Thackery - Rude Mood
TTITLE1=Finis Tasby - Mercy's Blues (I Believe)
TTITLE2=William Clarke - Letter From Home
TTITLE3=Duke Robillard - Jumpin'Rockin'Rhythm
TTITLE4=Kid Ramos - Fiddle De Dee
TTITLE5=Chris Thomas King - Bourbon Street Blues
TTITLE6=Magic Slim and The Teardrops - What's Wrong
TTITLE7=Mitch Woods and His Rockets 88's - Long Lean And Lanky
TTITLE8=Long John Hunter - Ride With Me
TTITLE9=Snooky Pryor - Work With Me Annie
TTITLE10=Dave Specter and Lenny Lynn - Roll'em Pete
TTITLE11=John Mooney - Cypress Grove
TTITLE12=Seatsniffers - Assembly Line
TTITLE13=Smokey Wilson - Standing At The Crossroads
TTITLE14=Jimmy Rogers - Chicago Bound
TTITLE15=Eric Sardinas - I Can't Be Satisfied
EXTD=
EXTT0=
EXTT1=
EXTT2=
EXTT3=
EXTT4=
EXTT5=
EXTT6=
EXTT7=
EXTT8=
EXTT9=
EXTT10=
EXTT11=
EXTT12=
EXTT13=
EXTT14=
EXTT15=
PLAYORDER=
